<mxfile host="app.diagrams.net" modified="2023-12-14T10:49:44.476Z" agent="Mozilla/5.0 (Windows NT 10.0; Win64; x64) AppleWebKit/537.36 (KHTML, like Gecko) Chrome/120.0.0.0 Safari/537.36" etag="GEtmnd-Si7se632fHV0W" version="22.1.8" type="device">
  <diagram name="Page-1" id="b5b7bab2-c9e2-2cf4-8b2a-24fd1a2a6d21">
    <mxGraphModel dx="686" dy="565" grid="0" gridSize="10" guides="1" tooltips="1" connect="1" arrows="1" fold="1" page="0" pageScale="1" pageWidth="827" pageHeight="1169" background="none" math="0" shadow="0">
      <root>
        <mxCell id="0" />
        <mxCell id="1" parent="0" />
        <mxCell id="4hjQzBS3B8wGqRVhp3q0-1" value="" style="shape=folder;fontStyle=1;spacingTop=10;tabWidth=140;tabHeight=30;tabPosition=left;html=1;whiteSpace=wrap;" parent="1" vertex="1">
          <mxGeometry x="40" y="30" width="1640" height="170" as="geometry" />
        </mxCell>
        <mxCell id="4hjQzBS3B8wGqRVhp3q0-3" value="«component»&lt;br&gt;&lt;b&gt;SearchGUI&lt;/b&gt;" style="html=1;dropTarget=0;whiteSpace=wrap;" parent="1" vertex="1">
          <mxGeometry x="60" y="90" width="180" height="90" as="geometry" />
        </mxCell>
        <mxCell id="4hjQzBS3B8wGqRVhp3q0-4" value="" style="shape=module;jettyWidth=8;jettyHeight=4;" parent="4hjQzBS3B8wGqRVhp3q0-3" vertex="1">
          <mxGeometry x="1" width="20" height="20" relative="1" as="geometry">
            <mxPoint x="-27" y="7" as="offset" />
          </mxGeometry>
        </mxCell>
        <mxCell id="4hjQzBS3B8wGqRVhp3q0-5" value="" style="shape=folder;fontStyle=1;spacingTop=10;tabWidth=140;tabHeight=30;tabPosition=left;html=1;whiteSpace=wrap;" parent="1" vertex="1">
          <mxGeometry x="40" y="470" width="1240" height="170" as="geometry" />
        </mxCell>
        <mxCell id="4hjQzBS3B8wGqRVhp3q0-6" value="Data Access Layer" style="text;html=1;strokeColor=none;fillColor=none;align=center;verticalAlign=middle;whiteSpace=wrap;rounded=0;" parent="1" vertex="1">
          <mxGeometry x="10" y="470" width="200" height="30" as="geometry" />
        </mxCell>
        <mxCell id="4hjQzBS3B8wGqRVhp3q0-7" value="«Component»&lt;br&gt;&lt;b&gt;OfferDAO&lt;/b&gt;" style="html=1;dropTarget=0;whiteSpace=wrap;" parent="1" vertex="1">
          <mxGeometry x="155" y="520" width="180" height="90" as="geometry" />
        </mxCell>
        <mxCell id="4hjQzBS3B8wGqRVhp3q0-8" value="" style="shape=module;jettyWidth=8;jettyHeight=4;" parent="4hjQzBS3B8wGqRVhp3q0-7" vertex="1">
          <mxGeometry x="1" width="20" height="20" relative="1" as="geometry">
            <mxPoint x="-27" y="7" as="offset" />
          </mxGeometry>
        </mxCell>
        <mxCell id="4hjQzBS3B8wGqRVhp3q0-10" value="«Component»&lt;br&gt;&lt;b&gt;DeveloperDAO&lt;/b&gt;" style="html=1;dropTarget=0;whiteSpace=wrap;" parent="1" vertex="1">
          <mxGeometry x="470" y="530" width="180" height="90" as="geometry" />
        </mxCell>
        <mxCell id="4hjQzBS3B8wGqRVhp3q0-11" value="" style="shape=module;jettyWidth=8;jettyHeight=4;" parent="4hjQzBS3B8wGqRVhp3q0-10" vertex="1">
          <mxGeometry x="1" width="20" height="20" relative="1" as="geometry">
            <mxPoint x="-27" y="7" as="offset" />
          </mxGeometry>
        </mxCell>
        <mxCell id="4hjQzBS3B8wGqRVhp3q0-17" value="" style="shape=folder;fontStyle=1;spacingTop=10;tabWidth=140;tabHeight=30;tabPosition=left;html=1;whiteSpace=wrap;" parent="1" vertex="1">
          <mxGeometry x="40" y="250" width="1240" height="170" as="geometry" />
        </mxCell>
        <mxCell id="4hjQzBS3B8wGqRVhp3q0-18" value="«component»&lt;br&gt;&lt;b&gt;EmployerGUI&lt;/b&gt;" style="html=1;dropTarget=0;whiteSpace=wrap;" parent="1" vertex="1">
          <mxGeometry x="670" y="90" width="180" height="90" as="geometry" />
        </mxCell>
        <mxCell id="4hjQzBS3B8wGqRVhp3q0-19" value="" style="shape=module;jettyWidth=8;jettyHeight=4;" parent="4hjQzBS3B8wGqRVhp3q0-18" vertex="1">
          <mxGeometry x="1" width="20" height="20" relative="1" as="geometry">
            <mxPoint x="-27" y="7" as="offset" />
          </mxGeometry>
        </mxCell>
        <mxCell id="4hjQzBS3B8wGqRVhp3q0-20" value="«component»&lt;br&gt;&lt;b&gt;DeveloperGUI&lt;/b&gt;" style="html=1;dropTarget=0;whiteSpace=wrap;" parent="1" vertex="1">
          <mxGeometry x="470" y="90" width="180" height="90" as="geometry" />
        </mxCell>
        <mxCell id="4hjQzBS3B8wGqRVhp3q0-21" value="" style="shape=module;jettyWidth=8;jettyHeight=4;" parent="4hjQzBS3B8wGqRVhp3q0-20" vertex="1">
          <mxGeometry x="1" width="20" height="20" relative="1" as="geometry">
            <mxPoint x="-27" y="7" as="offset" />
          </mxGeometry>
        </mxCell>
        <mxCell id="4hjQzBS3B8wGqRVhp3q0-22" value="«component»&lt;br&gt;&lt;b&gt;LoginGUI&lt;/b&gt;" style="html=1;dropTarget=0;whiteSpace=wrap;" parent="1" vertex="1">
          <mxGeometry x="860" y="90" width="180" height="90" as="geometry" />
        </mxCell>
        <mxCell id="4hjQzBS3B8wGqRVhp3q0-23" value="" style="shape=module;jettyWidth=8;jettyHeight=4;" parent="4hjQzBS3B8wGqRVhp3q0-22" vertex="1">
          <mxGeometry x="1" width="20" height="20" relative="1" as="geometry">
            <mxPoint x="-27" y="7" as="offset" />
          </mxGeometry>
        </mxCell>
        <mxCell id="4hjQzBS3B8wGqRVhp3q0-25" value="«component»&lt;br&gt;&lt;b&gt;SignUpGUI&lt;/b&gt;" style="html=1;dropTarget=0;whiteSpace=wrap;" parent="1" vertex="1">
          <mxGeometry x="1061" y="90" width="180" height="90" as="geometry" />
        </mxCell>
        <mxCell id="4hjQzBS3B8wGqRVhp3q0-26" value="" style="shape=module;jettyWidth=8;jettyHeight=4;" parent="4hjQzBS3B8wGqRVhp3q0-25" vertex="1">
          <mxGeometry x="1" width="20" height="20" relative="1" as="geometry">
            <mxPoint x="-27" y="7" as="offset" />
          </mxGeometry>
        </mxCell>
        <mxCell id="4hjQzBS3B8wGqRVhp3q0-27" value="«component»&lt;br&gt;&lt;b&gt;InboxGUI&lt;/b&gt;" style="html=1;dropTarget=0;whiteSpace=wrap;" parent="1" vertex="1">
          <mxGeometry x="1270" y="90" width="180" height="90" as="geometry" />
        </mxCell>
        <mxCell id="4hjQzBS3B8wGqRVhp3q0-28" value="" style="shape=module;jettyWidth=8;jettyHeight=4;" parent="4hjQzBS3B8wGqRVhp3q0-27" vertex="1">
          <mxGeometry x="1" width="20" height="20" relative="1" as="geometry">
            <mxPoint x="-27" y="7" as="offset" />
          </mxGeometry>
        </mxCell>
        <mxCell id="4hjQzBS3B8wGqRVhp3q0-29" value="«component»&lt;br&gt;&lt;b&gt;ChatGUI&lt;/b&gt;" style="html=1;dropTarget=0;whiteSpace=wrap;" parent="1" vertex="1">
          <mxGeometry x="1474" y="90" width="180" height="90" as="geometry" />
        </mxCell>
        <mxCell id="4hjQzBS3B8wGqRVhp3q0-30" value="" style="shape=module;jettyWidth=8;jettyHeight=4;" parent="4hjQzBS3B8wGqRVhp3q0-29" vertex="1">
          <mxGeometry x="1" width="20" height="20" relative="1" as="geometry">
            <mxPoint x="-27" y="7" as="offset" />
          </mxGeometry>
        </mxCell>
        <mxCell id="O_cc4rlv1EW-NWDAQmC--1" value="«component»&lt;br&gt;&lt;b&gt;SearchControl&lt;/b&gt;" style="html=1;dropTarget=0;whiteSpace=wrap;" parent="1" vertex="1">
          <mxGeometry x="60" y="310" width="180" height="90" as="geometry" />
        </mxCell>
        <mxCell id="O_cc4rlv1EW-NWDAQmC--2" value="" style="shape=module;jettyWidth=8;jettyHeight=4;" parent="O_cc4rlv1EW-NWDAQmC--1" vertex="1">
          <mxGeometry x="1" width="20" height="20" relative="1" as="geometry">
            <mxPoint x="-27" y="7" as="offset" />
          </mxGeometry>
        </mxCell>
        <mxCell id="O_cc4rlv1EW-NWDAQmC--3" value="«component»&lt;br&gt;&lt;b&gt;OfferControl&lt;/b&gt;" style="html=1;dropTarget=0;whiteSpace=wrap;" parent="1" vertex="1">
          <mxGeometry x="270" y="310" width="180" height="90" as="geometry" />
        </mxCell>
        <mxCell id="O_cc4rlv1EW-NWDAQmC--4" value="" style="shape=module;jettyWidth=8;jettyHeight=4;" parent="O_cc4rlv1EW-NWDAQmC--3" vertex="1">
          <mxGeometry x="1" width="20" height="20" relative="1" as="geometry">
            <mxPoint x="-27" y="7" as="offset" />
          </mxGeometry>
        </mxCell>
        <mxCell id="O_cc4rlv1EW-NWDAQmC--5" value="«component»&lt;br&gt;&lt;b&gt;ChatControl&lt;/b&gt;" style="html=1;dropTarget=0;whiteSpace=wrap;" parent="1" vertex="1">
          <mxGeometry x="1070" y="310" width="180" height="90" as="geometry" />
        </mxCell>
        <mxCell id="O_cc4rlv1EW-NWDAQmC--6" value="" style="shape=module;jettyWidth=8;jettyHeight=4;" parent="O_cc4rlv1EW-NWDAQmC--5" vertex="1">
          <mxGeometry x="1" width="20" height="20" relative="1" as="geometry">
            <mxPoint x="-27" y="7" as="offset" />
          </mxGeometry>
        </mxCell>
        <mxCell id="O_cc4rlv1EW-NWDAQmC--7" value="«component»&lt;br&gt;&lt;b&gt;AuthenticationControl&lt;/b&gt;" style="html=1;dropTarget=0;whiteSpace=wrap;" parent="1" vertex="1">
          <mxGeometry x="860" y="310" width="180" height="90" as="geometry" />
        </mxCell>
        <mxCell id="O_cc4rlv1EW-NWDAQmC--8" value="" style="shape=module;jettyWidth=8;jettyHeight=4;" parent="O_cc4rlv1EW-NWDAQmC--7" vertex="1">
          <mxGeometry x="1" width="20" height="20" relative="1" as="geometry">
            <mxPoint x="-27" y="7" as="offset" />
          </mxGeometry>
        </mxCell>
        <mxCell id="vZ2CN4wMhGTW3bv5hmPA-1" value="«component»&lt;br&gt;&lt;b&gt;OfferGUI&lt;/b&gt;" style="html=1;dropTarget=0;whiteSpace=wrap;" parent="1" vertex="1">
          <mxGeometry x="270" y="90" width="180" height="90" as="geometry" />
        </mxCell>
        <mxCell id="vZ2CN4wMhGTW3bv5hmPA-2" value="" style="shape=module;jettyWidth=8;jettyHeight=4;" parent="vZ2CN4wMhGTW3bv5hmPA-1" vertex="1">
          <mxGeometry x="1" width="20" height="20" relative="1" as="geometry">
            <mxPoint x="-27" y="7" as="offset" />
          </mxGeometry>
        </mxCell>
        <mxCell id="vZ2CN4wMhGTW3bv5hmPA-11" value="«Component»&lt;br&gt;&lt;b&gt;EmployerDAO&lt;/b&gt;" style="html=1;dropTarget=0;whiteSpace=wrap;" parent="1" vertex="1">
          <mxGeometry x="770" y="530" width="180" height="90" as="geometry" />
        </mxCell>
        <mxCell id="vZ2CN4wMhGTW3bv5hmPA-12" value="" style="shape=module;jettyWidth=8;jettyHeight=4;" parent="vZ2CN4wMhGTW3bv5hmPA-11" vertex="1">
          <mxGeometry x="1" width="20" height="20" relative="1" as="geometry">
            <mxPoint x="-27" y="7" as="offset" />
          </mxGeometry>
        </mxCell>
        <mxCell id="vZ2CN4wMhGTW3bv5hmPA-15" value="«component»&lt;br&gt;&lt;b&gt;UserControl&lt;/b&gt;" style="html=1;dropTarget=0;whiteSpace=wrap;" parent="1" vertex="1">
          <mxGeometry x="557" y="307" width="180" height="90" as="geometry" />
        </mxCell>
        <mxCell id="vZ2CN4wMhGTW3bv5hmPA-16" value="" style="shape=module;jettyWidth=8;jettyHeight=4;" parent="vZ2CN4wMhGTW3bv5hmPA-15" vertex="1">
          <mxGeometry x="1" width="20" height="20" relative="1" as="geometry">
            <mxPoint x="-27" y="7" as="offset" />
          </mxGeometry>
        </mxCell>
        <mxCell id="vZ2CN4wMhGTW3bv5hmPA-23" value="«component»&lt;br&gt;&lt;b&gt;ChatDAO&lt;/b&gt;" style="html=1;dropTarget=0;whiteSpace=wrap;" parent="1" vertex="1">
          <mxGeometry x="1070" y="530" width="180" height="90" as="geometry" />
        </mxCell>
        <mxCell id="vZ2CN4wMhGTW3bv5hmPA-24" value="" style="shape=module;jettyWidth=8;jettyHeight=4;" parent="vZ2CN4wMhGTW3bv5hmPA-23" vertex="1">
          <mxGeometry x="1" width="20" height="20" relative="1" as="geometry">
            <mxPoint x="-27" y="7" as="offset" />
          </mxGeometry>
        </mxCell>
        <mxCell id="vZ2CN4wMhGTW3bv5hmPA-25" value="Business Logic Layer" style="text;html=1;strokeColor=none;fillColor=none;align=center;verticalAlign=middle;whiteSpace=wrap;rounded=0;" parent="1" vertex="1">
          <mxGeometry x="30" y="250" width="160" height="30" as="geometry" />
        </mxCell>
        <mxCell id="vZ2CN4wMhGTW3bv5hmPA-26" value="Presentation&amp;nbsp; Layer" style="text;html=1;strokeColor=none;fillColor=none;align=center;verticalAlign=middle;whiteSpace=wrap;rounded=0;" parent="1" vertex="1">
          <mxGeometry x="10" y="30" width="210" height="30" as="geometry" />
        </mxCell>
        <mxCell id="vZ2CN4wMhGTW3bv5hmPA-47" value="" style="rounded=0;orthogonalLoop=1;jettySize=auto;html=1;endArrow=halfCircle;endFill=0;endSize=6;strokeWidth=1;sketch=0;exitX=0.5;exitY=1;exitDx=0;exitDy=0;" parent="1" source="vZ2CN4wMhGTW3bv5hmPA-1" target="vZ2CN4wMhGTW3bv5hmPA-49" edge="1">
          <mxGeometry relative="1" as="geometry">
            <mxPoint x="780" y="245" as="sourcePoint" />
          </mxGeometry>
        </mxCell>
        <mxCell id="vZ2CN4wMhGTW3bv5hmPA-48" value="" style="rounded=0;orthogonalLoop=1;jettySize=auto;html=1;endArrow=oval;endFill=0;sketch=0;sourcePerimeterSpacing=0;targetPerimeterSpacing=0;endSize=10;exitX=0.5;exitY=0;exitDx=0;exitDy=0;entryX=-0.129;entryY=0.329;entryDx=0;entryDy=0;entryPerimeter=0;" parent="1" source="O_cc4rlv1EW-NWDAQmC--3" target="vZ2CN4wMhGTW3bv5hmPA-49" edge="1">
          <mxGeometry relative="1" as="geometry">
            <mxPoint x="740" y="245" as="sourcePoint" />
          </mxGeometry>
        </mxCell>
        <mxCell id="vZ2CN4wMhGTW3bv5hmPA-49" value="" style="ellipse;whiteSpace=wrap;html=1;align=center;aspect=fixed;fillColor=none;strokeColor=none;resizable=0;perimeter=centerPerimeter;rotatable=0;allowArrows=0;points=[];outlineConnect=1;" parent="1" vertex="1">
          <mxGeometry x="355" y="230" width="10" height="10" as="geometry" />
        </mxCell>
        <mxCell id="vZ2CN4wMhGTW3bv5hmPA-50" value="" style="rounded=0;orthogonalLoop=1;jettySize=auto;html=1;endArrow=halfCircle;endFill=0;endSize=6;strokeWidth=1;sketch=0;exitX=0.5;exitY=1;exitDx=0;exitDy=0;" parent="1" source="vZ2CN4wMhGTW3bv5hmPA-56" target="vZ2CN4wMhGTW3bv5hmPA-52" edge="1">
          <mxGeometry relative="1" as="geometry">
            <mxPoint x="970" y="235" as="sourcePoint" />
          </mxGeometry>
        </mxCell>
        <mxCell id="vZ2CN4wMhGTW3bv5hmPA-51" value="" style="rounded=0;orthogonalLoop=1;jettySize=auto;html=1;endArrow=oval;endFill=0;sketch=0;sourcePerimeterSpacing=0;targetPerimeterSpacing=0;endSize=10;exitX=0.5;exitY=0;exitDx=0;exitDy=0;" parent="1" source="O_cc4rlv1EW-NWDAQmC--7" target="vZ2CN4wMhGTW3bv5hmPA-52" edge="1">
          <mxGeometry relative="1" as="geometry">
            <mxPoint x="930" y="235" as="sourcePoint" />
          </mxGeometry>
        </mxCell>
        <mxCell id="vZ2CN4wMhGTW3bv5hmPA-52" value="" style="ellipse;whiteSpace=wrap;html=1;align=center;aspect=fixed;fillColor=none;strokeColor=none;resizable=0;perimeter=centerPerimeter;rotatable=0;allowArrows=0;points=[];outlineConnect=1;" parent="1" vertex="1">
          <mxGeometry x="945" y="230" width="10" height="10" as="geometry" />
        </mxCell>
        <mxCell id="vZ2CN4wMhGTW3bv5hmPA-55" value="" style="rounded=0;orthogonalLoop=1;jettySize=auto;html=1;endArrow=halfCircle;endFill=0;endSize=6;strokeWidth=1;sketch=0;fontSize=12;" parent="1" target="vZ2CN4wMhGTW3bv5hmPA-56" edge="1">
          <mxGeometry relative="1" as="geometry">
            <mxPoint x="1150" y="180" as="sourcePoint" />
            <Array as="points">
              <mxPoint x="1150" y="235" />
            </Array>
          </mxGeometry>
        </mxCell>
        <mxCell id="vZ2CN4wMhGTW3bv5hmPA-58" value="" style="rounded=0;orthogonalLoop=1;jettySize=auto;html=1;endArrow=halfCircle;endFill=0;endSize=6;strokeWidth=1;sketch=0;exitX=0.478;exitY=0.988;exitDx=0;exitDy=0;exitPerimeter=0;" parent="1" source="4hjQzBS3B8wGqRVhp3q0-29" target="vZ2CN4wMhGTW3bv5hmPA-60" edge="1">
          <mxGeometry relative="1" as="geometry">
            <mxPoint x="1440" y="355" as="sourcePoint" />
            <Array as="points">
              <mxPoint x="1560" y="355" />
            </Array>
          </mxGeometry>
        </mxCell>
        <mxCell id="vZ2CN4wMhGTW3bv5hmPA-59" value="" style="rounded=0;orthogonalLoop=1;jettySize=auto;html=1;endArrow=oval;endFill=0;sketch=0;sourcePerimeterSpacing=0;targetPerimeterSpacing=0;endSize=10;exitX=1;exitY=0.5;exitDx=0;exitDy=0;" parent="1" source="O_cc4rlv1EW-NWDAQmC--5" target="vZ2CN4wMhGTW3bv5hmPA-60" edge="1">
          <mxGeometry relative="1" as="geometry">
            <mxPoint x="1400" y="355" as="sourcePoint" />
          </mxGeometry>
        </mxCell>
        <mxCell id="vZ2CN4wMhGTW3bv5hmPA-60" value="" style="ellipse;whiteSpace=wrap;html=1;align=center;aspect=fixed;fillColor=none;strokeColor=none;resizable=0;perimeter=centerPerimeter;rotatable=0;allowArrows=0;points=[];outlineConnect=1;" parent="1" vertex="1">
          <mxGeometry x="1355" y="350" width="10" height="10" as="geometry" />
        </mxCell>
        <mxCell id="vZ2CN4wMhGTW3bv5hmPA-62" value="" style="ellipse;whiteSpace=wrap;html=1;align=center;aspect=fixed;fillColor=none;strokeColor=none;resizable=0;perimeter=centerPerimeter;rotatable=0;allowArrows=0;points=[];outlineConnect=1;" parent="1" vertex="1">
          <mxGeometry x="1430" y="310" width="10" height="10" as="geometry" />
        </mxCell>
        <mxCell id="vZ2CN4wMhGTW3bv5hmPA-63" value="" style="rounded=0;orthogonalLoop=1;jettySize=auto;html=1;endArrow=halfCircle;endFill=0;endSize=6;strokeWidth=1;sketch=0;fontSize=12;exitX=0.5;exitY=1;exitDx=0;exitDy=0;" parent="1" source="4hjQzBS3B8wGqRVhp3q0-27" target="vZ2CN4wMhGTW3bv5hmPA-64" edge="1">
          <mxGeometry relative="1" as="geometry">
            <mxPoint x="1420" y="250" as="sourcePoint" />
            <Array as="points">
              <mxPoint x="1360" y="250" />
            </Array>
          </mxGeometry>
        </mxCell>
        <mxCell id="vZ2CN4wMhGTW3bv5hmPA-64" value="" style="ellipse;whiteSpace=wrap;html=1;align=center;aspect=fixed;fillColor=none;strokeColor=none;resizable=0;perimeter=centerPerimeter;rotatable=0;allowArrows=0;points=[];outlineConnect=1;" parent="1" vertex="1">
          <mxGeometry x="1355" y="350" width="10" height="10" as="geometry" />
        </mxCell>
        <mxCell id="vZ2CN4wMhGTW3bv5hmPA-65" value="" style="rounded=0;orthogonalLoop=1;jettySize=auto;html=1;endArrow=halfCircle;endFill=0;endSize=6;strokeWidth=1;sketch=0;exitX=0.5;exitY=1;exitDx=0;exitDy=0;" parent="1" source="4hjQzBS3B8wGqRVhp3q0-3" target="vZ2CN4wMhGTW3bv5hmPA-67" edge="1">
          <mxGeometry relative="1" as="geometry">
            <mxPoint x="170" y="235" as="sourcePoint" />
          </mxGeometry>
        </mxCell>
        <mxCell id="vZ2CN4wMhGTW3bv5hmPA-66" value="" style="rounded=0;orthogonalLoop=1;jettySize=auto;html=1;endArrow=oval;endFill=0;sketch=0;sourcePerimeterSpacing=0;targetPerimeterSpacing=0;endSize=10;" parent="1" source="O_cc4rlv1EW-NWDAQmC--1" target="vZ2CN4wMhGTW3bv5hmPA-67" edge="1">
          <mxGeometry relative="1" as="geometry">
            <mxPoint x="130" y="235" as="sourcePoint" />
          </mxGeometry>
        </mxCell>
        <mxCell id="vZ2CN4wMhGTW3bv5hmPA-67" value="" style="ellipse;whiteSpace=wrap;html=1;align=center;aspect=fixed;fillColor=none;strokeColor=none;resizable=0;perimeter=centerPerimeter;rotatable=0;allowArrows=0;points=[];outlineConnect=1;" parent="1" vertex="1">
          <mxGeometry x="145" y="230" width="10" height="10" as="geometry" />
        </mxCell>
        <mxCell id="vZ2CN4wMhGTW3bv5hmPA-68" value="" style="rounded=0;orthogonalLoop=1;jettySize=auto;html=1;endArrow=halfCircle;endFill=0;endSize=6;strokeWidth=1;sketch=0;exitX=0.5;exitY=1;exitDx=0;exitDy=0;" parent="1" source="4hjQzBS3B8wGqRVhp3q0-22" target="vZ2CN4wMhGTW3bv5hmPA-56" edge="1">
          <mxGeometry relative="1" as="geometry">
            <mxPoint x="950" y="180" as="sourcePoint" />
            <mxPoint x="950" y="245" as="targetPoint" />
          </mxGeometry>
        </mxCell>
        <mxCell id="vZ2CN4wMhGTW3bv5hmPA-56" value="" style="ellipse;whiteSpace=wrap;html=1;align=center;aspect=fixed;fillColor=none;strokeColor=none;resizable=0;perimeter=centerPerimeter;rotatable=0;allowArrows=0;points=[];outlineConnect=1;" parent="1" vertex="1">
          <mxGeometry x="945" y="230" width="10" height="10" as="geometry" />
        </mxCell>
        <mxCell id="vZ2CN4wMhGTW3bv5hmPA-70" value="" style="ellipse;whiteSpace=wrap;html=1;align=center;aspect=fixed;fillColor=none;strokeColor=none;resizable=0;perimeter=centerPerimeter;rotatable=0;allowArrows=0;points=[];outlineConnect=1;" parent="1" vertex="1">
          <mxGeometry x="945" y="230" width="10" height="10" as="geometry" />
        </mxCell>
        <mxCell id="vZ2CN4wMhGTW3bv5hmPA-87" value="" style="rounded=0;orthogonalLoop=1;jettySize=auto;html=1;endArrow=halfCircle;endFill=0;endSize=6;strokeWidth=1;sketch=0;exitX=0.5;exitY=1;exitDx=0;exitDy=0;" parent="1" source="O_cc4rlv1EW-NWDAQmC--3" target="vZ2CN4wMhGTW3bv5hmPA-89" edge="1">
          <mxGeometry relative="1" as="geometry">
            <mxPoint x="400" y="455" as="sourcePoint" />
            <Array as="points">
              <mxPoint x="360" y="475" />
            </Array>
          </mxGeometry>
        </mxCell>
        <mxCell id="vZ2CN4wMhGTW3bv5hmPA-88" value="" style="rounded=0;orthogonalLoop=1;jettySize=auto;html=1;endArrow=oval;endFill=0;sketch=0;sourcePerimeterSpacing=0;targetPerimeterSpacing=0;endSize=10;exitX=0.5;exitY=0;exitDx=0;exitDy=0;" parent="1" source="4hjQzBS3B8wGqRVhp3q0-7" target="vZ2CN4wMhGTW3bv5hmPA-89" edge="1">
          <mxGeometry relative="1" as="geometry">
            <mxPoint x="360" y="455" as="sourcePoint" />
          </mxGeometry>
        </mxCell>
        <mxCell id="vZ2CN4wMhGTW3bv5hmPA-89" value="" style="ellipse;whiteSpace=wrap;html=1;align=center;aspect=fixed;fillColor=none;strokeColor=none;resizable=0;perimeter=centerPerimeter;rotatable=0;allowArrows=0;points=[];outlineConnect=1;" parent="1" vertex="1">
          <mxGeometry x="240" y="470" width="10" height="10" as="geometry" />
        </mxCell>
        <mxCell id="vZ2CN4wMhGTW3bv5hmPA-93" value="" style="rounded=0;orthogonalLoop=1;jettySize=auto;html=1;endArrow=oval;endFill=0;sketch=0;sourcePerimeterSpacing=0;targetPerimeterSpacing=0;endSize=10;exitX=0.5;exitY=0;exitDx=0;exitDy=0;" parent="1" source="4hjQzBS3B8wGqRVhp3q0-10" target="vZ2CN4wMhGTW3bv5hmPA-94" edge="1">
          <mxGeometry relative="1" as="geometry">
            <mxPoint x="500" y="455" as="sourcePoint" />
          </mxGeometry>
        </mxCell>
        <mxCell id="vZ2CN4wMhGTW3bv5hmPA-94" value="" style="ellipse;whiteSpace=wrap;html=1;align=center;aspect=fixed;fillColor=none;strokeColor=none;resizable=0;perimeter=centerPerimeter;rotatable=0;allowArrows=0;points=[];outlineConnect=1;" parent="1" vertex="1">
          <mxGeometry x="555" y="470" width="10" height="10" as="geometry" />
        </mxCell>
        <mxCell id="vZ2CN4wMhGTW3bv5hmPA-96" value="" style="rounded=0;orthogonalLoop=1;jettySize=auto;html=1;endArrow=oval;endFill=0;sketch=0;sourcePerimeterSpacing=0;targetPerimeterSpacing=0;endSize=10;exitX=0.5;exitY=0;exitDx=0;exitDy=0;" parent="1" source="vZ2CN4wMhGTW3bv5hmPA-11" target="vZ2CN4wMhGTW3bv5hmPA-97" edge="1">
          <mxGeometry relative="1" as="geometry">
            <mxPoint x="880" y="445" as="sourcePoint" />
          </mxGeometry>
        </mxCell>
        <mxCell id="vZ2CN4wMhGTW3bv5hmPA-97" value="" style="ellipse;whiteSpace=wrap;html=1;align=center;aspect=fixed;fillColor=none;strokeColor=none;resizable=0;perimeter=centerPerimeter;rotatable=0;allowArrows=0;points=[];outlineConnect=1;" parent="1" vertex="1">
          <mxGeometry x="855" y="470" width="10" height="10" as="geometry" />
        </mxCell>
        <mxCell id="vZ2CN4wMhGTW3bv5hmPA-100" value="" style="ellipse;whiteSpace=wrap;html=1;align=center;aspect=fixed;fillColor=none;strokeColor=none;resizable=0;perimeter=centerPerimeter;rotatable=0;allowArrows=0;points=[];outlineConnect=1;" parent="1" vertex="1">
          <mxGeometry x="945" y="470" width="10" height="10" as="geometry" />
        </mxCell>
        <mxCell id="vZ2CN4wMhGTW3bv5hmPA-101" value="" style="rounded=0;orthogonalLoop=1;jettySize=auto;html=1;endArrow=halfCircle;endFill=0;endSize=6;strokeWidth=1;sketch=0;exitX=0.5;exitY=1;exitDx=0;exitDy=0;" parent="1" source="O_cc4rlv1EW-NWDAQmC--5" target="vZ2CN4wMhGTW3bv5hmPA-103" edge="1">
          <mxGeometry relative="1" as="geometry">
            <mxPoint x="1200" y="455" as="sourcePoint" />
            <Array as="points">
              <mxPoint x="1160" y="455" />
            </Array>
          </mxGeometry>
        </mxCell>
        <mxCell id="vZ2CN4wMhGTW3bv5hmPA-102" value="" style="rounded=0;orthogonalLoop=1;jettySize=auto;html=1;endArrow=oval;endFill=0;sketch=0;sourcePerimeterSpacing=0;targetPerimeterSpacing=0;endSize=10;exitX=0.5;exitY=0;exitDx=0;exitDy=0;" parent="1" source="vZ2CN4wMhGTW3bv5hmPA-23" target="vZ2CN4wMhGTW3bv5hmPA-103" edge="1">
          <mxGeometry relative="1" as="geometry">
            <mxPoint x="1160" y="455" as="sourcePoint" />
          </mxGeometry>
        </mxCell>
        <mxCell id="vZ2CN4wMhGTW3bv5hmPA-103" value="" style="ellipse;whiteSpace=wrap;html=1;align=center;aspect=fixed;fillColor=none;strokeColor=none;resizable=0;perimeter=centerPerimeter;rotatable=0;allowArrows=0;points=[];outlineConnect=1;" parent="1" vertex="1">
          <mxGeometry x="1155" y="470" width="10" height="10" as="geometry" />
        </mxCell>
        <mxCell id="vZ2CN4wMhGTW3bv5hmPA-114" value="" style="ellipse;whiteSpace=wrap;html=1;align=center;aspect=fixed;fillColor=none;strokeColor=none;resizable=0;perimeter=centerPerimeter;rotatable=0;allowArrows=0;points=[];outlineConnect=1;" parent="1" vertex="1">
          <mxGeometry x="555" y="470" width="10" height="10" as="geometry" />
        </mxCell>
        <mxCell id="vZ2CN4wMhGTW3bv5hmPA-117" value="" style="ellipse;whiteSpace=wrap;html=1;align=center;aspect=fixed;fillColor=none;strokeColor=none;resizable=0;perimeter=centerPerimeter;rotatable=0;allowArrows=0;points=[];outlineConnect=1;" parent="1" vertex="1">
          <mxGeometry x="945" y="470" width="10" height="10" as="geometry" />
        </mxCell>
        <mxCell id="vZ2CN4wMhGTW3bv5hmPA-119" value="" style="ellipse;whiteSpace=wrap;html=1;align=center;aspect=fixed;fillColor=none;strokeColor=none;resizable=0;perimeter=centerPerimeter;rotatable=0;allowArrows=0;points=[];outlineConnect=1;" parent="1" vertex="1">
          <mxGeometry x="945" y="470" width="10" height="10" as="geometry" />
        </mxCell>
        <mxCell id="vZ2CN4wMhGTW3bv5hmPA-139" value="" style="orthogonalLoop=1;jettySize=auto;html=1;endArrow=halfCircle;endFill=0;endSize=6;strokeWidth=1;sketch=0;fontSize=12;exitX=0.75;exitY=1;exitDx=0;exitDy=0;rounded=0;" parent="1" edge="1">
          <mxGeometry relative="1" as="geometry">
            <mxPoint x="195" y="400" as="sourcePoint" />
            <Array as="points">
              <mxPoint x="195" y="450" />
              <mxPoint x="230" y="450" />
              <mxPoint x="430" y="450" />
              <mxPoint x="430" y="475" />
            </Array>
            <mxPoint x="560" y="475" as="targetPoint" />
          </mxGeometry>
        </mxCell>
        <mxCell id="vZ2CN4wMhGTW3bv5hmPA-140" value="" style="ellipse;whiteSpace=wrap;html=1;align=center;aspect=fixed;fillColor=none;strokeColor=none;resizable=0;perimeter=centerPerimeter;rotatable=0;allowArrows=0;points=[];outlineConnect=1;" parent="1" vertex="1">
          <mxGeometry x="555" y="470" width="10" height="10" as="geometry" />
        </mxCell>
        <mxCell id="_HC3MCcnosiCHFK4Tdls-1" value="" style="rounded=0;orthogonalLoop=1;jettySize=auto;html=1;endArrow=halfCircle;endFill=0;endSize=6;strokeWidth=1;sketch=0;fontSize=12;edgeStyle=orthogonalEdgeStyle;exitX=0.5;exitY=1;exitDx=0;exitDy=0;" parent="1" target="_HC3MCcnosiCHFK4Tdls-2" edge="1">
          <mxGeometry relative="1" as="geometry">
            <mxPoint x="945" y="400" as="sourcePoint" />
            <Array as="points">
              <mxPoint x="945" y="475" />
            </Array>
          </mxGeometry>
        </mxCell>
        <mxCell id="_HC3MCcnosiCHFK4Tdls-2" value="" style="ellipse;whiteSpace=wrap;html=1;align=center;aspect=fixed;fillColor=none;strokeColor=none;resizable=0;perimeter=centerPerimeter;rotatable=0;allowArrows=0;points=[];outlineConnect=1;" parent="1" vertex="1">
          <mxGeometry x="855" y="470" width="10" height="10" as="geometry" />
        </mxCell>
        <mxCell id="_HC3MCcnosiCHFK4Tdls-3" value="" style="rounded=0;orthogonalLoop=1;jettySize=auto;html=1;endArrow=halfCircle;endFill=0;endSize=6;strokeWidth=1;sketch=0;fontSize=12;edgeStyle=orthogonalEdgeStyle;exitX=0.25;exitY=1;exitDx=0;exitDy=0;" parent="1" source="O_cc4rlv1EW-NWDAQmC--7" target="_HC3MCcnosiCHFK4Tdls-4" edge="1">
          <mxGeometry relative="1" as="geometry">
            <mxPoint x="580" y="475" as="sourcePoint" />
            <Array as="points">
              <mxPoint x="905" y="435" />
              <mxPoint x="770" y="435" />
              <mxPoint x="770" y="475" />
            </Array>
          </mxGeometry>
        </mxCell>
        <mxCell id="_HC3MCcnosiCHFK4Tdls-4" value="" style="ellipse;whiteSpace=wrap;html=1;align=center;aspect=fixed;fillColor=none;strokeColor=none;resizable=0;perimeter=centerPerimeter;rotatable=0;allowArrows=0;points=[];outlineConnect=1;" parent="1" vertex="1">
          <mxGeometry x="555" y="470" width="10" height="10" as="geometry" />
        </mxCell>
        <mxCell id="_HC3MCcnosiCHFK4Tdls-5" value="" style="rounded=0;orthogonalLoop=1;jettySize=auto;html=1;endArrow=halfCircle;endFill=0;endSize=6;strokeWidth=1;sketch=0;fontSize=12;edgeStyle=orthogonalEdgeStyle;exitX=0.5;exitY=1;exitDx=0;exitDy=0;" parent="1" target="_HC3MCcnosiCHFK4Tdls-6" edge="1">
          <mxGeometry relative="1" as="geometry">
            <mxPoint x="170" y="400" as="sourcePoint" />
            <Array as="points">
              <mxPoint x="170" y="475" />
            </Array>
          </mxGeometry>
        </mxCell>
        <mxCell id="_HC3MCcnosiCHFK4Tdls-6" value="" style="ellipse;whiteSpace=wrap;html=1;align=center;aspect=fixed;fillColor=none;strokeColor=none;resizable=0;perimeter=centerPerimeter;rotatable=0;allowArrows=0;points=[];outlineConnect=1;" parent="1" vertex="1">
          <mxGeometry x="240" y="470" width="10" height="10" as="geometry" />
        </mxCell>
        <mxCell id="_HC3MCcnosiCHFK4Tdls-8" value="" style="ellipse;whiteSpace=wrap;html=1;align=center;aspect=fixed;fillColor=none;strokeColor=none;resizable=0;perimeter=centerPerimeter;rotatable=0;allowArrows=0;points=[];outlineConnect=1;" parent="1" vertex="1">
          <mxGeometry x="355" y="230" width="10" height="10" as="geometry" />
        </mxCell>
        <mxCell id="_HC3MCcnosiCHFK4Tdls-10" value="" style="ellipse;whiteSpace=wrap;html=1;align=center;aspect=fixed;fillColor=none;strokeColor=none;resizable=0;perimeter=centerPerimeter;rotatable=0;allowArrows=0;points=[];outlineConnect=1;" parent="1" vertex="1">
          <mxGeometry x="355" y="230" width="10" height="10" as="geometry" />
        </mxCell>
        <mxCell id="3Ar8F-vP3MKCaAao-7d8-3" value="" style="rounded=0;orthogonalLoop=1;jettySize=auto;html=1;endArrow=halfCircle;endFill=0;endSize=6;strokeWidth=1;sketch=0;fontSize=12;edgeStyle=orthogonalEdgeStyle;exitX=0.25;exitY=1;exitDx=0;exitDy=0;" edge="1" target="3Ar8F-vP3MKCaAao-7d8-4" parent="1" source="vZ2CN4wMhGTW3bv5hmPA-15">
          <mxGeometry relative="1" as="geometry">
            <mxPoint x="570" y="422" as="sourcePoint" />
            <Array as="points">
              <mxPoint x="602" y="452" />
              <mxPoint x="560" y="452" />
            </Array>
          </mxGeometry>
        </mxCell>
        <mxCell id="3Ar8F-vP3MKCaAao-7d8-4" value="" style="ellipse;whiteSpace=wrap;html=1;align=center;aspect=fixed;fillColor=none;strokeColor=none;resizable=0;perimeter=centerPerimeter;rotatable=0;allowArrows=0;points=[];outlineConnect=1;" vertex="1" parent="1">
          <mxGeometry x="555" y="470" width="10" height="10" as="geometry" />
        </mxCell>
        <mxCell id="3Ar8F-vP3MKCaAao-7d8-5" value="" style="rounded=0;orthogonalLoop=1;jettySize=auto;html=1;endArrow=halfCircle;endFill=0;endSize=6;strokeWidth=1;sketch=0;fontSize=12;edgeStyle=orthogonalEdgeStyle;entryX=0.166;entryY=0.08;entryDx=0;entryDy=0;entryPerimeter=0;exitX=0.75;exitY=1;exitDx=0;exitDy=0;" edge="1" target="_HC3MCcnosiCHFK4Tdls-2" parent="1" source="vZ2CN4wMhGTW3bv5hmPA-15">
          <mxGeometry relative="1" as="geometry">
            <mxPoint x="685" y="446" as="sourcePoint" />
            <Array as="points">
              <mxPoint x="692" y="453" />
              <mxPoint x="860" y="453" />
            </Array>
          </mxGeometry>
        </mxCell>
        <mxCell id="3Ar8F-vP3MKCaAao-7d8-6" value="" style="ellipse;whiteSpace=wrap;html=1;align=center;aspect=fixed;fillColor=none;strokeColor=none;resizable=0;perimeter=centerPerimeter;rotatable=0;allowArrows=0;points=[];outlineConnect=1;" vertex="1" parent="1">
          <mxGeometry x="660" y="441" width="10" height="10" as="geometry" />
        </mxCell>
        <mxCell id="3Ar8F-vP3MKCaAao-7d8-7" value="" style="rounded=0;orthogonalLoop=1;jettySize=auto;html=1;endArrow=halfCircle;endFill=0;endSize=6;strokeWidth=1;sketch=0;edgeStyle=orthogonalEdgeStyle;exitX=0.5;exitY=1;exitDx=0;exitDy=0;" edge="1" target="3Ar8F-vP3MKCaAao-7d8-9" parent="1" source="4hjQzBS3B8wGqRVhp3q0-18">
          <mxGeometry relative="1" as="geometry">
            <mxPoint x="770" y="239" as="sourcePoint" />
          </mxGeometry>
        </mxCell>
        <mxCell id="3Ar8F-vP3MKCaAao-7d8-8" value="" style="rounded=0;orthogonalLoop=1;jettySize=auto;html=1;endArrow=oval;endFill=0;sketch=0;sourcePerimeterSpacing=0;targetPerimeterSpacing=0;endSize=10;edgeStyle=orthogonalEdgeStyle;exitX=0.75;exitY=0;exitDx=0;exitDy=0;" edge="1" target="3Ar8F-vP3MKCaAao-7d8-9" parent="1" source="vZ2CN4wMhGTW3bv5hmPA-15">
          <mxGeometry relative="1" as="geometry">
            <mxPoint x="730" y="239" as="sourcePoint" />
            <Array as="points">
              <mxPoint x="692" y="268" />
              <mxPoint x="760" y="268" />
            </Array>
          </mxGeometry>
        </mxCell>
        <mxCell id="3Ar8F-vP3MKCaAao-7d8-9" value="" style="ellipse;whiteSpace=wrap;html=1;align=center;aspect=fixed;fillColor=none;strokeColor=none;resizable=0;perimeter=centerPerimeter;rotatable=0;allowArrows=0;points=[];outlineConnect=1;" vertex="1" parent="1">
          <mxGeometry x="755" y="225" width="10" height="10" as="geometry" />
        </mxCell>
        <mxCell id="3Ar8F-vP3MKCaAao-7d8-10" value="" style="rounded=0;orthogonalLoop=1;jettySize=auto;html=1;endArrow=halfCircle;endFill=0;endSize=6;strokeWidth=1;sketch=0;edgeStyle=orthogonalEdgeStyle;exitX=0.5;exitY=1;exitDx=0;exitDy=0;" edge="1" target="3Ar8F-vP3MKCaAao-7d8-12" parent="1" source="4hjQzBS3B8wGqRVhp3q0-20">
          <mxGeometry relative="1" as="geometry">
            <mxPoint x="580" y="230" as="sourcePoint" />
          </mxGeometry>
        </mxCell>
        <mxCell id="3Ar8F-vP3MKCaAao-7d8-11" value="" style="rounded=0;orthogonalLoop=1;jettySize=auto;html=1;endArrow=oval;endFill=0;sketch=0;sourcePerimeterSpacing=0;targetPerimeterSpacing=0;endSize=10;edgeStyle=orthogonalEdgeStyle;exitX=0.25;exitY=0;exitDx=0;exitDy=0;" edge="1" target="3Ar8F-vP3MKCaAao-7d8-12" parent="1" source="vZ2CN4wMhGTW3bv5hmPA-15">
          <mxGeometry relative="1" as="geometry">
            <mxPoint x="540" y="230" as="sourcePoint" />
            <Array as="points">
              <mxPoint x="602" y="268" />
              <mxPoint x="560" y="268" />
            </Array>
          </mxGeometry>
        </mxCell>
        <mxCell id="3Ar8F-vP3MKCaAao-7d8-12" value="" style="ellipse;whiteSpace=wrap;html=1;align=center;aspect=fixed;fillColor=none;strokeColor=none;resizable=0;perimeter=centerPerimeter;rotatable=0;allowArrows=0;points=[];outlineConnect=1;" vertex="1" parent="1">
          <mxGeometry x="555" y="225" width="10" height="10" as="geometry" />
        </mxCell>
      </root>
    </mxGraphModel>
  </diagram>
</mxfile>
